<svg xmlns="http://www.w3.org/2000/svg" xmlns:xlink="http://www.w3.org/1999/xlink" aria-hidden="true" role="img" class="iconify iconify--logos" width="31.88" height="32" preserveAspectRatio="xMidYMid meet" viewBox="0 0 256 257"><defs><linearGradient id="WordPressSquareIconGradient1" x1="50%" x2="50%" y1="97.803%" y2="0%"><stop offset="0%" stop-color="#1C3454"></stop><stop offset="100%" stop-color="#3F5A7C"></stop></linearGradient><linearGradient id="WordPressSquareIconGradient2" x1="50%" x2="50%" y1="100%" y2="0%"><stop offset="0%" stop-color="#006992"></stop><stop offset="100%" stop-color="#008BCB"></stop></linearGradient><linearGradient id="WordPressSquareIconGradient3" x1="50%" x2="50%" y1="100%" y2="0%"><stop offset="0%" stop-color="#004D6B"></stop><stop offset="100%" stop-color="#0071A3"></stop></linearGradient></defs><path fill="url(#WordPressSquareIconGradient1)" d="M233.086 0H22.914C10.265 0 0 10.265 0 22.914v210.172C0 245.735 10.265 256 22.914 256h210.172C245.735 256 256 245.735 256 233.086V22.914C256 10.265 245.735 0 233.086 0z"></path><path fill="url(#WordPressSquareIconGradient2)" d="M173.361 165.073c0-14.153-10.495-24.206-24.055-24.206c-13.559 0-24.056 10.053-24.056 24.206c0 14.154 10.496 24.207 24.056 24.207c13.56 0 24.055-10.053 24.055-24.207Zm-67.07-59.728L82.156 199.11h45.239l9.71-46.697c4.855-22.654 2.428-34.004-7.282-34.004c-7.282 0-13.56 5.305-18.5 16.954Z"></path><path fill="url(#WordPressSquareIconGradient3)" d="M123.286 105.345c-1.942-5.513-5.305-9.65-9.903-9.65c-7.282 0-13.56 10.053-18.5 21.702l-14.116 81.713h45.239l9.71-46.697c4.855-22.654 2.428-34.004-7.282-34.004c-4.618 0-8.453 2.67-11.05 7.688l-.002.001Z"></path><path fill="#fff" d="M189.745 105.345c-1.942-5.513-5.305-9.65-9.903-9.65c-7.282 0-13.56 10.053-18.5 21.702l-14.116 81.713h45.239l9.71-46.697c4.855-22.654 2.428-34.004-7.282-34.004c-4.618 0-8.453 2.67-11.05 7.688l-.002.001Z"></path></svg>
